<svg xmlns="http://www.w3.org/2000/svg" xmlns:xlink="http://www.w3.org/1999/xlink" width="1080" zoomAndPan="magnify" viewBox="0 0 810 809.999993" height="1080" preserveAspectRatio="xMidYMid meet" version="1.0"><defs><clipPath id="0eafac31f3"><path d="M 5.125 0 L 804.625 0 L 804.625 810 L 5.125 810 Z M 5.125 0 " clip-rule="nonzero"/></clipPath></defs><g clip-path="url(#0eafac31f3)"><path fill="#fefefe" d="M -1465.394531 -560.742188 C -217.894531 -560.742188 1029.605469 -560.742188 2277.105469 -560.742188 C 2277.105469 119.757812 2277.105469 800.257812 2277.105469 1480.757812 C 1029.605469 1480.757812 -217.894531 1480.757812 -1465.394531 1480.757812 C -1465.394531 800.257812 -1465.394531 119.757812 -1465.394531 -560.742188 Z M -1465.394531 -560.742188 " fill-opacity="1" fill-rule="evenodd"/></g><path fill="#2f247d" d="M 241.058594 2.796875 C 260.050781 4.394531 278.65625 7.9375 296.875 13.429688 C 296.425781 16.941406 297.308594 20.046875 299.535156 22.734375 C 295.347656 21.726562 291.359375 22.167969 287.574219 24.0625 C 284.492188 35.554688 281.390625 47.078125 278.269531 58.617188 C 278.714844 60.390625 279.15625 62.160156 279.597656 63.933594 C 285.972656 50.847656 287.300781 52.175781 283.585938 67.921875 C 285.359375 69.695312 287.128906 71.464844 288.902344 73.238281 C 269.476562 72.742188 249.984375 72.300781 230.425781 71.910156 C 227.011719 68.492188 223.464844 64.949219 219.792969 61.277344 C 220.957031 58.601562 222.726562 58.601562 225.109375 61.277344 C 227.304688 51.648438 228.632812 41.902344 229.097656 32.035156 C 229.90625 26.875 232.121094 22.449219 235.742188 18.746094 C 234.855469 16.972656 233.96875 15.203125 233.085938 13.429688 C 236.351562 11.351562 239.894531 10.023438 243.714844 9.441406 C 238.082031 8.53125 237.195312 6.316406 241.058594 2.796875 Z M 241.058594 2.796875 " fill-opacity="1" fill-rule="evenodd"/><path fill="#168bda" d="M 621.15625 2.796875 C 623.449219 6.625 623.449219 10.171875 621.15625 13.429688 C 627.777344 16.195312 627.777344 18.410156 621.15625 20.074219 C 622.929688 20.960938 624.699219 21.847656 626.472656 22.734375 C 622.929688 24.503906 622.929688 26.277344 626.472656 28.050781 C 620.339844 43.371094 615.910156 59.320312 613.179688 75.898438 C 616.789062 78.378906 620.335938 80.597656 623.8125 82.542969 C 611.730469 81.925781 600.210938 84.140625 589.257812 89.1875 C 562.460938 100.191406 535.882812 111.707031 509.519531 123.746094 C 506.226562 125.578125 506.226562 126.90625 509.519531 127.730469 C 509.519531 129.503906 509.519531 131.273438 509.519531 133.046875 C 505.417969 130.917969 500.992188 130.035156 496.226562 130.390625 C 491.96875 130.890625 488.421875 129.558594 485.597656 126.402344 C 498.773438 120.855469 499.65625 113.765625 488.253906 105.136719 C 488.691406 102.167969 489.578125 99.066406 490.914062 95.832031 C 487.816406 92.953125 484.273438 90.738281 480.28125 89.1875 C 485.597656 86.53125 490.914062 83.871094 496.226562 81.214844 C 507.359375 81.023438 517.988281 79.25 528.125 75.898438 C 525.984375 63.273438 524.65625 50.425781 524.136719 37.351562 C 521.179688 34.003906 520.734375 30.902344 522.808594 28.050781 C 517.074219 24.5625 516.1875 20.132812 520.152344 14.757812 C 518.570312 13.523438 516.800781 13.082031 514.835938 13.429688 C 549.113281 1.199219 584.550781 -2.34375 621.15625 2.796875 Z M 621.15625 2.796875 " fill-opacity="1" fill-rule="evenodd"/><path fill="#382b8c" d="M 241.058594 2.796875 C 237.195312 6.316406 238.082031 8.53125 243.714844 9.441406 C 239.894531 10.023438 236.351562 11.351562 233.085938 13.429688 C 233.96875 15.203125 234.855469 16.972656 235.742188 18.746094 C 232.121094 22.449219 229.90625 26.875 229.097656 32.035156 C 228.632812 41.902344 227.304688 51.648438 225.109375 61.277344 C 222.726562 58.601562 220.957031 58.601562 219.792969 61.277344 C 223.464844 64.949219 227.011719 68.492188 230.425781 71.910156 C 212.324219 72.675781 195.484375 77.109375 179.921875 85.199219 C 168.542969 86.890625 157.914062 90.878906 148.027344 97.164062 C 131.742188 108.578125 116.679688 121.421875 102.839844 135.707031 C 99.460938 134.921875 95.03125 134.035156 89.550781 133.046875 C 84.339844 113.316406 77.25 94.265625 68.285156 75.898438 C 78.035156 66.148438 87.777344 56.402344 97.523438 46.65625 C 94.089844 45.355469 90.542969 44.910156 86.894531 45.328125 C 132.03125 9.667969 183.417969 -4.507812 241.058594 2.796875 Z M 241.058594 2.796875 " fill-opacity="1" fill-rule="evenodd"/><path fill="#271d6e" d="M 296.875 13.429688 C 334.066406 24.351562 369.507812 39.414062 403.199219 58.617188 C 373.90625 77.695312 345.554688 98.074219 318.140625 119.757812 C 312.824219 122.414062 307.507812 125.074219 302.191406 127.730469 C 300.417969 127.730469 298.648438 127.730469 296.875 127.730469 C 292.925781 124.265625 288.492188 121.164062 283.585938 118.429688 C 271.917969 114.824219 260.402344 110.394531 249.03125 105.136719 C 225.835938 97.625 202.796875 90.980469 179.921875 85.199219 C 195.484375 77.109375 212.324219 72.675781 230.425781 71.910156 C 249.984375 72.300781 269.476562 72.742188 288.902344 73.238281 C 287.128906 71.464844 285.359375 69.695312 283.585938 67.921875 C 287.300781 52.175781 285.972656 50.847656 279.597656 63.933594 C 279.15625 62.160156 278.714844 60.390625 278.269531 58.617188 C 281.390625 47.078125 284.492188 35.554688 287.574219 24.0625 C 291.359375 22.167969 295.347656 21.726562 299.535156 22.734375 C 297.308594 20.046875 296.425781 16.941406 296.875 13.429688 Z M 296.875 13.429688 " fill-opacity="1" fill-rule="evenodd"/><path fill="#189de6" d="M 621.15625 2.796875 C 662.429688 7.9375 698.757812 23.886719 730.132812 50.644531 C 704.707031 60.097656 678.125 66.300781 650.394531 69.25 C 643.828125 72.59375 637.628906 76.578125 631.789062 81.214844 C 633.265625 82.230469 634.152344 83.558594 634.445312 85.199219 C 630.902344 84.316406 627.355469 83.425781 623.8125 82.542969 C 620.335938 80.597656 616.789062 78.378906 613.179688 75.898438 C 615.910156 59.320312 620.339844 43.371094 626.472656 28.050781 C 622.929688 26.277344 622.929688 24.503906 626.472656 22.734375 C 624.699219 21.847656 622.929688 20.960938 621.15625 20.074219 C 627.777344 18.410156 627.777344 16.195312 621.15625 13.429688 C 623.449219 10.171875 623.449219 6.625 621.15625 2.796875 Z M 621.15625 2.796875 " fill-opacity="1" fill-rule="evenodd"/><path fill="#1baef0" d="M 730.132812 50.644531 C 748.375 66.792969 763.441406 85.398438 775.320312 106.464844 C 769.121094 115.1875 763.804688 126.265625 759.371094 139.695312 C 757.984375 159.871094 750.453125 177.148438 736.78125 191.527344 C 734.347656 189.328125 732.578125 186.667969 731.464844 183.554688 C 730.230469 185.132812 729.785156 186.90625 730.132812 188.871094 C 725.15625 174.480469 718.066406 161.191406 708.871094 148.996094 C 691.496094 119.226562 666.6875 97.960938 634.445312 85.199219 C 634.152344 83.558594 633.265625 82.230469 631.789062 81.214844 C 637.628906 76.578125 643.828125 72.59375 650.394531 69.25 C 678.125 66.300781 704.707031 60.097656 730.132812 50.644531 Z M 730.132812 50.644531 " fill-opacity="1" fill-rule="evenodd"/><path fill="#086ec6" d="M 445.726562 40.011719 C 447.691406 39.664062 449.464844 40.105469 451.042969 41.339844 C 448.714844 45.554688 446.054688 49.542969 443.066406 53.300781 C 445.054688 53.929688 447.269531 54.816406 449.714844 55.960938 C 453.289062 69.019531 455.503906 82.3125 456.359375 95.832031 C 424.417969 105.382812 394.738281 119.558594 367.3125 138.363281 C 361.941406 144.925781 362.382812 150.683594 368.644531 155.644531 C 367.664062 163.035156 367.664062 170.125 368.644531 176.910156 C 371.300781 179.566406 373.960938 182.226562 376.617188 184.882812 C 373.46875 187.925781 373.46875 191.027344 376.617188 194.1875 C 360.667969 205.703125 344.722656 217.226562 328.773438 228.742188 C 318.761719 217.804688 310.785156 205.402344 304.851562 191.527344 C 306.871094 186.585938 309.527344 182.152344 312.824219 178.238281 C 323.472656 169.109375 334.546875 160.246094 346.050781 151.65625 C 346.933594 145.183594 343.832031 142.527344 336.746094 143.679688 C 335.597656 136.277344 332.054688 130.074219 326.113281 125.074219 C 322.628906 127.625 319.082031 127.183594 315.484375 123.746094 C 316.960938 122.726562 317.847656 121.398438 318.140625 119.757812 C 345.554688 98.074219 373.90625 77.695312 403.199219 58.617188 C 417.265625 52.476562 431.441406 46.277344 445.726562 40.011719 Z M 445.726562 40.011719 " fill-opacity="1" fill-rule="evenodd"/><path fill="#0c7dd1" d="M 514.835938 13.429688 C 516.800781 13.082031 518.570312 13.523438 520.152344 14.757812 C 516.1875 20.132812 517.074219 24.5625 522.808594 28.050781 C 520.734375 30.902344 521.179688 34.003906 524.136719 37.351562 C 524.65625 50.425781 525.984375 63.273438 528.125 75.898438 C 517.988281 79.25 507.359375 81.023438 496.226562 81.214844 C 490.914062 83.871094 485.597656 86.53125 480.28125 89.1875 C 484.273438 90.738281 487.816406 92.953125 490.914062 95.832031 C 489.578125 99.066406 488.691406 102.167969 488.253906 105.136719 C 499.65625 113.765625 498.773438 120.855469 485.597656 126.402344 C 488.421875 129.558594 491.96875 130.890625 496.226562 130.390625 C 465.910156 143.335938 436.671875 158.398438 408.511719 175.578125 C 397.925781 181.710938 387.292969 187.910156 376.617188 194.1875 C 373.46875 191.027344 373.46875 187.925781 376.617188 184.882812 C 373.960938 182.226562 371.300781 179.566406 368.644531 176.910156 C 367.664062 170.125 367.664062 163.035156 368.644531 155.644531 C 362.382812 150.683594 361.941406 144.925781 367.3125 138.363281 C 394.738281 119.558594 424.417969 105.382812 456.359375 95.832031 C 455.503906 82.3125 453.289062 69.019531 449.714844 55.960938 C 447.269531 54.816406 445.054688 53.929688 443.066406 53.300781 C 446.054688 49.542969 448.714844 45.554688 451.042969 41.339844 C 449.464844 40.105469 447.691406 39.664062 445.726562 40.011719 C 467.429688 28.292969 490.46875 19.433594 514.835938 13.429688 Z M 514.835938 13.429688 " fill-opacity="1" fill-rule="evenodd"/><path fill="#20b6f5" d="M 775.320312 106.464844 C 788.105469 125.734375 796.523438 147 800.570312 170.261719 C 806.261719 218.539062 800.945312 265.5 784.625 311.148438 C 772.011719 342.363281 759.164062 373.375 746.082031 404.183594 C 737.480469 386.089844 726.847656 369.257812 714.1875 353.679688 C 714.1875 351.90625 714.1875 350.136719 714.1875 348.363281 C 714.414062 345.714844 713.527344 343.5 711.527344 341.71875 C 714.046875 340.433594 716.707031 339.992188 719.503906 340.386719 C 725.617188 318.578125 730.492188 296.425781 734.121094 273.933594 C 736.621094 245.332031 735.292969 216.976562 730.132812 188.871094 C 729.785156 186.90625 730.230469 185.132812 731.464844 183.554688 C 732.578125 186.667969 734.347656 189.328125 736.78125 191.527344 C 750.453125 177.148438 757.984375 159.871094 759.371094 139.695312 C 763.804688 126.265625 769.121094 115.1875 775.320312 106.464844 Z M 775.320312 106.464844 " fill-opacity="1" fill-rule="evenodd"/><path fill="#221964" d="M 179.921875 85.199219 C 202.796875 90.980469 225.835938 97.625 249.03125 105.136719 C 260.402344 110.394531 271.917969 114.824219 283.585938 118.429688 C 288.492188 121.164062 292.925781 124.265625 296.875 127.730469 C 221.199219 110.859375 167.59375 137.441406 136.066406 207.476562 C 131.0625 225.753906 128.847656 244.359375 129.421875 263.300781 C 119.601562 230.71875 109.410156 197.933594 98.855469 164.945312 C 96.085938 162.367188 93.871094 159.707031 92.207031 156.972656 C 95.789062 149.8125 99.332031 142.722656 102.839844 135.707031 C 116.679688 121.421875 131.742188 108.578125 148.027344 97.164062 C 157.914062 90.878906 168.542969 86.890625 179.921875 85.199219 Z M 179.921875 85.199219 " fill-opacity="1" fill-rule="evenodd"/><path fill="#f9fafb" d="M 296.875 127.730469 C 298.648438 127.730469 300.417969 127.730469 302.191406 127.730469 C 271.390625 154.980469 241.265625 183.335938 211.820312 212.792969 C 199.304688 222.648438 188.671875 234.167969 179.921875 247.351562 C 164.757812 262.511719 150.585938 278.460938 137.394531 295.199219 C 134.738281 284.566406 132.078125 273.933594 129.421875 263.300781 C 128.847656 244.359375 131.0625 225.753906 136.066406 207.476562 C 167.59375 137.441406 221.199219 110.859375 296.875 127.730469 Z M 296.875 127.730469 " fill-opacity="1" fill-rule="evenodd"/><path fill="#fafbfc" d="M 679.632812 242.035156 C 679.933594 259.992188 678.164062 277.710938 674.316406 295.199219 C 653.4375 269.496094 631.289062 244.6875 607.867188 220.769531 C 577.523438 188.648438 544.742188 159.40625 509.519531 133.046875 C 509.519531 131.273438 509.519531 129.503906 509.519531 127.730469 C 566.449219 113.269531 614.738281 127.445312 654.378906 170.261719 C 670.300781 191.488281 678.71875 215.414062 679.632812 242.035156 Z M 679.632812 242.035156 " fill-opacity="1" fill-rule="evenodd"/><path fill="#0873c2" d="M 623.8125 82.542969 C 627.355469 83.425781 630.902344 84.316406 634.445312 85.199219 C 666.6875 97.960938 691.496094 119.226562 708.871094 148.996094 C 706.707031 188.648438 698.289062 226.746094 683.617188 263.300781 C 683.132812 255.683594 681.804688 248.597656 679.632812 242.035156 C 678.71875 215.414062 670.300781 191.488281 654.378906 170.261719 C 614.738281 127.445312 566.449219 113.269531 509.519531 127.730469 C 506.226562 126.90625 506.226562 125.578125 509.519531 123.746094 C 535.882812 111.707031 562.460938 100.191406 589.257812 89.1875 C 600.210938 84.140625 611.730469 81.925781 623.8125 82.542969 Z M 623.8125 82.542969 " fill-opacity="1" fill-rule="evenodd"/><path fill="#065bb9" d="M 318.140625 119.757812 C 317.847656 121.398438 316.960938 122.726562 315.484375 123.746094 C 319.082031 127.183594 322.628906 127.625 326.113281 125.074219 C 332.054688 130.074219 335.597656 136.277344 336.746094 143.679688 C 343.832031 142.527344 346.933594 145.183594 346.050781 151.65625 C 334.546875 160.246094 323.472656 169.109375 312.824219 178.238281 C 289.171875 195.210938 266.578125 213.820312 245.046875 234.058594 C 242.890625 221.757812 236.246094 212.894531 225.109375 207.476562 C 221.351562 210.464844 217.363281 213.125 213.148438 215.453125 C 212.089844 214.847656 211.648438 213.957031 211.820312 212.792969 C 241.265625 183.335938 271.390625 154.980469 302.191406 127.730469 C 307.507812 125.074219 312.824219 122.414062 318.140625 119.757812 Z M 318.140625 119.757812 " fill-opacity="1" fill-rule="evenodd"/><path fill="#241a66" d="M 496.226562 130.390625 C 500.992188 130.035156 505.417969 130.917969 509.519531 133.046875 C 544.742188 159.40625 577.523438 188.648438 607.867188 220.769531 C 605.957031 225.410156 603.300781 227.179688 599.890625 226.085938 C 601.636719 240.613281 606.511719 254.792969 614.511719 268.617188 C 617.242188 276.613281 619.015625 284.589844 619.828125 292.539062 C 578.347656 244.847656 532.71875 201.875 482.9375 163.617188 C 469.042969 166.546875 455.753906 171.863281 443.066406 179.566406 C 437.394531 181.894531 433.847656 185.882812 432.4375 191.527344 C 424.460938 186.210938 416.488281 180.894531 408.511719 175.578125 C 436.671875 158.398438 465.910156 143.335938 496.226562 130.390625 Z M 496.226562 130.390625 " fill-opacity="1" fill-rule="evenodd"/><path fill="#fdfdfd" d="M 408.511719 175.578125 C 416.488281 180.894531 424.460938 186.210938 432.4375 191.527344 C 512.609375 246.003906 578.175781 314.234375 629.128906 396.210938 C 630.015625 397.984375 630.902344 399.753906 631.789062 401.527344 C 631.789062 403.300781 631.789062 405.070312 631.789062 406.84375 C 623.117188 423.304688 612.484375 438.371094 599.890625 452.03125 C 592.300781 439.078125 582.554688 428.003906 570.652344 418.804688 C 555.269531 406.6875 538.433594 397.382812 520.152344 390.894531 C 513.996094 332.464844 482.101562 297.910156 424.460938 287.222656 C 390.855469 281.722656 360.726562 290.140625 334.089844 312.476562 C 329.746094 313.789062 325.316406 314.230469 320.800781 313.804688 C 296.195312 309.648438 271.390625 307.875 246.375 308.488281 C 251.691406 302.289062 257.007812 296.082031 262.324219 289.882812 C 283.605469 268.597656 305.757812 248.21875 328.773438 228.742188 C 344.722656 217.226562 360.667969 205.703125 376.617188 194.1875 C 387.292969 187.910156 397.925781 181.710938 408.511719 175.578125 Z M 408.511719 175.578125 " fill-opacity="1" fill-rule="evenodd"/><path fill="#1292db" d="M 708.871094 148.996094 C 718.066406 161.191406 725.15625 174.480469 730.132812 188.871094 C 735.292969 216.976562 736.621094 245.332031 734.121094 273.933594 C 730.492188 296.425781 725.617188 318.578125 719.503906 340.386719 C 716.707031 339.992188 714.046875 340.433594 711.527344 341.71875 C 713.527344 343.5 714.414062 345.714844 714.1875 348.363281 C 700.929688 330.742188 687.636719 313.023438 674.316406 295.199219 C 678.164062 277.710938 679.933594 259.992188 679.632812 242.035156 C 681.804688 248.597656 683.132812 255.683594 683.617188 263.300781 C 698.289062 226.746094 706.707031 188.648438 708.871094 148.996094 Z M 708.871094 148.996094 " fill-opacity="1" fill-rule="evenodd"/><path fill="#0667c1" d="M 312.824219 178.238281 C 309.527344 182.152344 306.871094 186.585938 304.851562 191.527344 C 310.785156 205.402344 318.761719 217.804688 328.773438 228.742188 C 305.757812 248.21875 283.605469 268.597656 262.324219 289.882812 C 258.9375 288.050781 258.9375 285.832031 262.324219 283.238281 C 250.121094 277.222656 239.488281 269.25 230.425781 259.3125 C 221.558594 263.347656 212.699219 266.449219 203.847656 268.617188 C 195.699219 261.332031 187.726562 254.242188 179.921875 247.351562 C 188.671875 234.167969 199.304688 222.648438 211.820312 212.792969 C 211.648438 213.957031 212.089844 214.847656 213.148438 215.453125 C 217.363281 213.125 221.351562 210.464844 225.109375 207.476562 C 236.246094 212.894531 242.890625 221.757812 245.046875 234.058594 C 266.578125 213.820312 289.171875 195.210938 312.824219 178.238281 Z M 312.824219 178.238281 " fill-opacity="1" fill-rule="evenodd"/><path fill="#30237d" d="M 607.867188 220.769531 C 631.289062 244.6875 653.4375 269.496094 674.316406 295.199219 C 687.636719 313.023438 700.929688 330.742188 714.1875 348.363281 C 714.1875 350.136719 714.1875 351.90625 714.1875 353.679688 C 701.25 346.550781 689.289062 337.691406 678.304688 327.097656 C 669 334.136719 665.011719 342.996094 666.34375 353.679688 C 652.484375 332.089844 648.058594 333.417969 653.050781 357.667969 C 652.363281 361.019531 650.589844 363.675781 647.734375 365.640625 C 652.144531 367.566406 653.472656 370.671875 651.722656 374.945312 C 650.835938 374.058594 649.949219 373.171875 649.066406 372.285156 C 646.664062 375.480469 643.566406 377.695312 639.761719 378.933594 C 641.535156 379.816406 643.304688 380.703125 645.078125 381.589844 C 642.417969 383.804688 639.761719 386.019531 637.105469 388.234375 C 639.726562 398.515625 638.398438 398.515625 633.117188 388.234375 C 632.5 391.523438 631.171875 394.183594 629.128906 396.210938 C 578.175781 314.234375 512.609375 246.003906 432.4375 191.527344 C 433.847656 185.882812 437.394531 181.894531 443.066406 179.566406 C 455.753906 171.863281 469.042969 166.546875 482.9375 163.617188 C 532.71875 201.875 578.347656 244.847656 619.828125 292.539062 C 619.015625 284.589844 617.242188 276.613281 614.511719 268.617188 C 606.511719 254.792969 601.636719 240.613281 599.890625 226.085938 C 603.300781 227.179688 605.957031 225.410156 607.867188 220.769531 Z M 607.867188 220.769531 " fill-opacity="1" fill-rule="evenodd"/><path fill="#0b71c1" d="M 179.921875 247.351562 C 187.726562 254.242188 195.699219 261.332031 203.847656 268.617188 C 212.699219 266.449219 221.558594 263.347656 230.425781 259.3125 C 239.488281 269.25 250.121094 277.222656 262.324219 283.238281 C 258.9375 285.832031 258.9375 288.050781 262.324219 289.882812 C 257.007812 296.082031 251.691406 302.289062 246.375 308.488281 C 242.832031 311.148438 239.285156 313.804688 235.742188 316.464844 C 221.074219 308.929688 208.230469 299.1875 197.199219 287.222656 C 186.457031 297.964844 176.710938 309.480469 167.960938 321.78125 C 166.191406 326.210938 166.191406 330.640625 167.960938 335.070312 C 174.523438 352.601562 180.28125 370.320312 185.238281 388.234375 C 184.621094 392.386719 182.847656 395.929688 179.921875 398.867188 C 160.699219 366.585938 146.519531 332.027344 137.394531 295.199219 C 150.585938 278.460938 164.757812 262.511719 179.921875 247.351562 Z M 179.921875 247.351562 " fill-opacity="1" fill-rule="evenodd"/><path fill="#271e70" d="M 92.207031 156.972656 C 93.871094 159.707031 96.085938 162.367188 98.855469 164.945312 C 109.410156 197.933594 119.601562 230.71875 129.421875 263.300781 C 132.078125 273.933594 134.738281 284.566406 137.394531 295.199219 C 146.519531 332.027344 160.699219 366.585938 179.921875 398.867188 C 180.074219 401.816406 180.960938 404.472656 182.582031 406.84375 C 177.351562 409.851562 172.480469 408.96875 167.960938 404.183594 C 166.074219 409.148438 167.402344 413.136719 171.949219 416.148438 C 166.914062 419.015625 166.03125 422.5625 169.292969 426.78125 C 160.390625 436.8125 159.507812 448.777344 166.632812 462.664062 C 165.75 465.324219 163.976562 467.097656 161.316406 467.980469 C 155.050781 463.929688 150.175781 458.613281 146.699219 452.03125 C 135.554688 433.257812 124.480469 414.648438 113.472656 396.210938 C 94.5 357.449219 81.652344 316.691406 74.933594 273.933594 C 73.160156 250.007812 73.160156 226.085938 74.933594 202.160156 C 78.398438 185.96875 84.15625 170.90625 92.207031 156.972656 Z M 92.207031 156.972656 " fill-opacity="1" fill-rule="evenodd"/><path fill="#3e2f93" d="M 86.894531 45.328125 C 90.542969 44.910156 94.089844 45.355469 97.523438 46.65625 C 87.777344 56.402344 78.035156 66.148438 68.285156 75.898438 C 77.25 94.265625 84.339844 113.316406 89.550781 133.046875 C 95.03125 134.035156 99.460938 134.921875 102.839844 135.707031 C 99.332031 142.722656 95.789062 149.8125 92.207031 156.972656 C 84.15625 170.90625 78.398438 185.96875 74.933594 202.160156 C 73.160156 226.085938 73.160156 250.007812 74.933594 273.933594 C 81.652344 316.691406 94.5 357.449219 113.472656 396.210938 C 114.167969 400.140625 113.285156 403.683594 110.816406 406.84375 C 105.527344 406.929688 100.210938 409.140625 94.867188 413.488281 C 97.984375 421.753906 96.65625 422.199219 90.878906 414.816406 C 89.105469 417.476562 89.105469 420.132812 90.878906 422.792969 C 94.171875 431.421875 97.273438 438.953125 100.183594 445.386719 C 98.605469 446.621094 96.832031 447.0625 94.867188 446.714844 C 84.457031 432.105469 74.714844 417.042969 65.628906 401.527344 C 37.898438 351.574219 18.851562 298.410156 8.480469 242.035156 C -1.265625 161.5 24.871094 95.933594 86.894531 45.328125 Z M 86.894531 45.328125 " fill-opacity="1" fill-rule="evenodd"/><path fill="#1285d4" d="M 235.742188 316.464844 C 231.382812 323.503906 226.953125 330.59375 222.453125 337.730469 C 209.398438 354.089844 196.996094 370.929688 185.238281 388.234375 C 180.28125 370.320312 174.523438 352.601562 167.960938 335.070312 C 166.191406 330.640625 166.191406 326.210938 167.960938 321.78125 C 176.710938 309.480469 186.457031 297.964844 197.199219 287.222656 C 208.230469 299.1875 221.074219 308.929688 235.742188 316.464844 Z M 235.742188 316.464844 " fill-opacity="1" fill-rule="evenodd"/><path fill="#eddeaa" d="M 424.460938 287.222656 C 420.03125 287.222656 415.601562 287.222656 411.171875 287.222656 C 411.171875 293.425781 411.171875 299.628906 411.171875 305.832031 C 411.171875 307.605469 411.171875 309.375 411.171875 311.148438 C 407.0625 308.128906 402.191406 306.359375 396.550781 305.832031 C 384.167969 307.300781 372.207031 310.402344 360.667969 315.136719 C 354.367188 318.871094 349.9375 324.1875 347.378906 331.085938 C 350.035156 331.96875 352.695312 332.855469 355.351562 333.742188 C 353.773438 334.976562 352 335.417969 350.035156 335.070312 C 338.347656 335.617188 326.828125 334.734375 315.484375 332.414062 C 315.484375 331.527344 315.484375 330.640625 315.484375 329.753906 C 320.257812 326.316406 324.6875 322.332031 328.773438 317.792969 C 325.484375 317.175781 322.828125 315.847656 320.800781 313.804688 C 325.316406 314.230469 329.746094 313.789062 334.089844 312.476562 C 360.726562 290.140625 390.855469 281.722656 424.460938 287.222656 Z M 424.460938 287.222656 " fill-opacity="1" fill-rule="evenodd"/><path fill="#c28e27" d="M 246.375 308.488281 C 271.390625 307.875 296.195312 309.648438 320.800781 313.804688 C 322.828125 315.847656 325.484375 317.175781 328.773438 317.792969 C 324.6875 322.332031 320.257812 326.316406 315.484375 329.753906 C 295.277344 325.636719 274.898438 324.304688 254.347656 325.769531 C 249.769531 327.15625 246.226562 329.816406 243.714844 333.742188 C 247.664062 339.902344 252.09375 345.660156 257.007812 351.019531 C 255.59375 358.324219 252.933594 363.640625 249.03125 366.96875 C 236.410156 360.554688 227.554688 350.808594 222.453125 337.730469 C 226.953125 330.59375 231.382812 323.503906 235.742188 316.464844 C 239.285156 313.804688 242.832031 311.148438 246.375 308.488281 Z M 246.375 308.488281 " fill-opacity="1" fill-rule="evenodd"/><path fill="#fcfcfa" d="M 315.484375 329.753906 C 315.484375 330.640625 315.484375 331.527344 315.484375 332.414062 C 315.484375 333.296875 315.484375 334.1875 315.484375 335.070312 C 305.777344 346.523438 299.570312 359.8125 296.875 374.945312 C 291.5625 372.285156 286.246094 369.628906 280.929688 366.96875 C 272.953125 361.652344 264.980469 356.335938 257.007812 351.019531 C 252.09375 345.660156 247.664062 339.902344 243.714844 333.742188 C 246.226562 329.816406 249.769531 327.15625 254.347656 325.769531 C 274.898438 324.304688 295.277344 325.636719 315.484375 329.753906 Z M 315.484375 329.753906 " fill-opacity="1" fill-rule="evenodd"/><path fill="#f3dc7c" d="M 445.726562 361.652344 C 449.40625 364.613281 453.394531 367.273438 457.6875 369.628906 C 458.214844 374.683594 460.433594 378.671875 464.332031 381.589844 C 461.898438 382.328125 460.128906 383.660156 459.015625 385.578125 C 456.359375 383.804688 453.699219 382.035156 451.042969 380.261719 C 445.832031 375.859375 440.515625 371.429688 435.09375 366.96875 C 427.53125 355.386719 421.332031 342.984375 416.488281 329.753906 C 419.144531 329.753906 421.804688 329.753906 424.460938 329.753906 C 428.980469 314.226562 438.726562 310.238281 453.699219 317.792969 C 463.960938 324.480469 466.617188 333.339844 461.675781 344.375 C 452.609375 346.792969 443.746094 349.449219 435.09375 352.351562 C 438.296875 356.007812 441.839844 359.105469 445.726562 361.652344 Z M 445.726562 361.652344 " fill-opacity="1" fill-rule="evenodd"/><path fill="#caeaf2" d="M 315.484375 335.070312 C 315.484375 334.1875 315.484375 333.296875 315.484375 332.414062 C 326.828125 334.734375 338.347656 335.617188 350.035156 335.070312 C 379.367188 342.628906 407.71875 353.261719 435.09375 366.96875 C 440.515625 371.429688 445.832031 375.859375 451.042969 380.261719 C 449.402344 380.554688 448.074219 381.441406 447.054688 382.917969 C 444.265625 378.648438 440.28125 376.878906 435.09375 377.601562 C 435.09375 374.945312 435.09375 372.285156 435.09375 369.628906 C 405.546875 361.28125 375.425781 356.410156 344.722656 355.007812 C 341.355469 355.828125 338.253906 357.160156 335.417969 358.996094 C 333.058594 369.398438 334.390625 379.144531 339.40625 388.234375 C 339.289062 390.671875 338.40625 392.445312 336.746094 393.550781 C 329.058594 374.003906 321.96875 354.511719 315.484375 335.070312 Z M 315.484375 335.070312 " fill-opacity="1" fill-rule="evenodd"/><path fill="#fcfdfd" d="M 222.453125 337.730469 C 227.554688 350.808594 236.410156 360.554688 249.03125 366.96875 C 258.652344 375.34375 269.285156 382.429688 280.929688 388.234375 C 286.246094 391.777344 291.5625 395.324219 296.875 398.867188 C 294.347656 402.640625 293.464844 407.070312 294.21875 412.160156 C 295.296875 430.449219 300.609375 447.28125 310.167969 462.664062 C 311.316406 465.882812 313.089844 468.539062 315.484375 470.640625 C 328.039062 488.878906 344.871094 501.285156 365.984375 507.855469 C 397.875 519.78125 428.882812 517.121094 459.015625 499.878906 C 473.097656 493.765625 483.730469 484.019531 490.914062 470.640625 C 501.125 474.632812 511.757812 476.402344 522.808594 475.957031 C 541.808594 478.59375 561.300781 479.476562 581.285156 478.613281 C 576.855469 483.929688 572.425781 489.246094 567.996094 494.5625 C 553.820312 509.628906 539.640625 524.6875 525.464844 539.753906 C 500.535156 561.144531 474.84375 581.523438 448.382812 600.890625 C 434.558594 611.792969 419.5 620.65625 403.199219 627.472656 C 397.835938 624.738281 392.519531 622.082031 387.25 619.5 C 302.707031 564.195312 234.484375 493.308594 182.582031 406.84375 C 180.960938 404.472656 180.074219 401.816406 179.921875 398.867188 C 182.847656 395.929688 184.621094 392.386719 185.238281 388.234375 C 196.996094 370.929688 209.398438 354.089844 222.453125 337.730469 Z M 222.453125 337.730469 " fill-opacity="1" fill-rule="evenodd"/><path fill="#edcf61" d="M 445.726562 361.652344 C 441.839844 359.105469 438.296875 356.007812 435.09375 352.351562 C 443.746094 349.449219 452.609375 346.792969 461.675781 344.375 C 466.617188 333.339844 463.960938 324.480469 453.699219 317.792969 C 438.726562 310.238281 428.980469 314.226562 424.460938 329.753906 C 421.804688 329.753906 419.144531 329.753906 416.488281 329.753906 C 413.21875 324.976562 411.449219 319.660156 411.171875 313.804688 C 426.203125 305.203125 442.152344 303.871094 459.015625 309.820312 C 462.421875 316.207031 467.292969 321.082031 473.636719 324.4375 C 478.785156 348.050781 469.484375 360.457031 445.726562 361.652344 Z M 445.726562 361.652344 " fill-opacity="1" fill-rule="evenodd"/><path fill="#f8f5e2" d="M 411.171875 311.148438 C 411.171875 312.03125 411.171875 312.921875 411.171875 313.804688 C 411.449219 319.660156 413.21875 324.976562 416.488281 329.753906 C 421.332031 342.984375 427.53125 355.386719 435.09375 366.96875 C 407.71875 353.261719 379.367188 342.628906 350.035156 335.070312 C 352 335.417969 353.773438 334.976562 355.351562 333.742188 C 352.695312 332.855469 350.035156 331.96875 347.378906 331.085938 C 349.9375 324.1875 354.367188 318.871094 360.667969 315.136719 C 372.207031 310.402344 384.167969 307.300781 396.550781 305.832031 C 402.191406 306.359375 407.0625 308.128906 411.171875 311.148438 Z M 411.171875 311.148438 " fill-opacity="1" fill-rule="evenodd"/><path fill="#82cbe8" d="M 315.484375 335.070312 C 321.96875 354.511719 329.058594 374.003906 336.746094 393.550781 C 336.746094 394.4375 336.746094 395.324219 336.746094 396.210938 C 334.378906 394.589844 331.71875 393.703125 328.773438 393.550781 C 317.261719 388.6875 306.628906 382.484375 296.875 374.945312 C 299.570312 359.8125 305.777344 346.523438 315.484375 335.070312 Z M 315.484375 335.070312 " fill-opacity="1" fill-rule="evenodd"/><path fill="#e4b94b" d="M 257.007812 351.019531 C 264.980469 356.335938 272.953125 361.652344 280.929688 366.96875 C 284.382812 374.15625 284.382812 381.242188 280.929688 388.234375 C 269.285156 382.429688 258.652344 375.34375 249.03125 366.96875 C 252.933594 363.640625 255.59375 358.324219 257.007812 351.019531 Z M 257.007812 351.019531 " fill-opacity="1" fill-rule="evenodd"/><path fill="#c79220" d="M 424.460938 287.222656 C 482.101562 297.910156 513.996094 332.464844 520.152344 390.894531 C 501.28125 390.960938 483.558594 385.203125 466.988281 373.617188 C 486.613281 366.71875 494.144531 352.984375 489.582031 332.414062 C 489.148438 326.628906 486.9375 321.757812 482.9375 317.792969 C 473.34375 312.625 464.484375 306.425781 456.359375 299.1875 C 445.726562 297.414062 435.09375 297.414062 424.460938 299.1875 C 419.136719 300.078125 414.707031 302.289062 411.171875 305.832031 C 411.171875 299.628906 411.171875 293.425781 411.171875 287.222656 C 415.601562 287.222656 420.03125 287.222656 424.460938 287.222656 Z M 424.460938 287.222656 " fill-opacity="1" fill-rule="evenodd"/><path fill="#291e71" d="M 666.34375 353.679688 C 698.351562 402.664062 720.945312 455.828125 734.121094 513.171875 C 739.828125 542.027344 739.386719 570.382812 732.792969 598.234375 C 729.796875 584.445312 727.140625 584.890625 724.820312 599.5625 C 725.703125 600.449219 726.589844 601.335938 727.476562 602.222656 C 724.226562 607.675781 721.566406 613.4375 719.503906 619.5 C 720.015625 616.339844 718.6875 612.796875 715.515625 608.867188 C 714.390625 612.738281 712.175781 614.066406 708.871094 612.855469 C 710.933594 608.148438 710.492188 603.277344 707.542969 598.234375 C 706.65625 603.550781 705.769531 608.867188 704.882812 614.183594 C 693.214844 584.609375 684.796875 559.796875 679.632812 539.753906 C 679.816406 529.320312 678.046875 519.574219 674.316406 510.511719 C 666.367188 471.582031 652.191406 435.25 631.789062 401.527344 C 630.902344 399.753906 630.015625 397.984375 629.128906 396.210938 C 631.171875 394.183594 632.5 391.523438 633.117188 388.234375 C 638.398438 398.515625 639.726562 398.515625 637.105469 388.234375 C 639.761719 386.019531 642.417969 383.804688 645.078125 381.589844 C 643.304688 380.703125 641.535156 379.816406 639.761719 378.933594 C 643.566406 377.695312 646.664062 375.480469 649.066406 372.285156 C 649.949219 373.171875 650.835938 374.058594 651.722656 374.945312 C 653.472656 370.671875 652.144531 367.566406 647.734375 365.640625 C 650.589844 363.675781 652.363281 361.019531 653.050781 357.667969 C 648.058594 333.417969 652.484375 332.089844 666.34375 353.679688 Z M 666.34375 353.679688 " fill-opacity="1" fill-rule="evenodd"/><path fill="#f2d77b" d="M 280.929688 366.96875 C 286.246094 369.628906 291.5625 372.285156 296.875 374.945312 C 306.628906 382.484375 317.261719 388.6875 328.773438 393.550781 C 322.480469 401.414062 323.363281 407.175781 331.429688 410.832031 C 329.851562 412.0625 328.078125 412.507812 326.113281 412.160156 C 316.042969 408.453125 306.292969 404.019531 296.875 398.867188 C 291.5625 395.324219 286.246094 391.777344 280.929688 388.234375 C 284.382812 381.242188 284.382812 374.15625 280.929688 366.96875 Z M 280.929688 366.96875 " fill-opacity="1" fill-rule="evenodd"/><path fill="#73c5e5" d="M 464.332031 444.058594 C 441.746094 438.191406 419.59375 431.105469 397.882812 422.792969 C 386.585938 417.84375 375.066406 413.414062 363.328125 409.5 C 358.644531 407.339844 354.214844 404.683594 350.035156 401.527344 C 347.933594 397.628906 347.933594 394.082031 350.035156 390.894531 C 382.277344 384.910156 413.285156 388.898438 443.066406 402.855469 C 447.917969 408.144531 453.230469 413.019531 459.015625 417.476562 C 464.3125 426.0625 466.085938 434.925781 464.332031 444.058594 Z M 464.332031 444.058594 " fill-opacity="1" fill-rule="evenodd"/><path fill="#2e227b" d="M 113.472656 396.210938 C 124.480469 414.648438 135.554688 433.257812 146.699219 452.03125 C 150.175781 458.613281 155.050781 463.929688 161.316406 467.980469 C 163.976562 467.097656 165.75 465.324219 166.632812 462.664062 C 159.507812 448.777344 160.390625 436.8125 169.292969 426.78125 C 166.03125 422.5625 166.914062 419.015625 171.949219 416.148438 C 167.402344 413.136719 166.074219 409.148438 167.960938 404.183594 C 172.480469 408.96875 177.351562 409.851562 182.582031 406.84375 C 234.484375 493.308594 302.707031 564.195312 387.25 619.5 C 370.675781 625.984375 353.84375 632.628906 336.746094 639.4375 C 333.203125 641.207031 329.65625 641.207031 326.113281 639.4375 C 278.023438 601.09375 233.28125 559.003906 191.882812 513.171875 C 200.742188 537.386719 210.933594 559.980469 222.453125 580.957031 C 221.566406 581.839844 220.679688 582.726562 219.792969 583.613281 C 228.394531 589.617188 231.054688 597.144531 227.769531 606.207031 C 194.570312 576.054688 164.449219 543.269531 137.394531 507.855469 C 122.105469 489.042969 107.929688 469.550781 94.867188 449.375 C 94.867188 448.488281 94.867188 447.601562 94.867188 446.714844 C 96.832031 447.0625 98.605469 446.621094 100.183594 445.386719 C 97.273438 438.953125 94.171875 431.421875 90.878906 422.792969 C 89.105469 420.132812 89.105469 417.476562 90.878906 414.816406 C 96.65625 422.199219 97.984375 421.753906 94.867188 413.488281 C 100.210938 409.140625 105.527344 406.929688 110.816406 406.84375 C 113.285156 403.683594 114.167969 400.140625 113.472656 396.210938 Z M 113.472656 396.210938 " fill-opacity="1" fill-rule="evenodd"/><path fill="#a3dbed" d="M 451.042969 380.261719 C 453.699219 382.035156 456.359375 383.804688 459.015625 385.578125 C 475.242188 397.234375 492.960938 406.097656 512.175781 412.160156 C 516.808594 416.480469 518.136719 421.796875 516.164062 428.109375 C 514.027344 435.402344 511.371094 442.492188 508.191406 449.375 C 505.503906 451.597656 502.398438 452.484375 498.886719 452.03125 C 486.902344 451.058594 475.386719 448.398438 464.332031 444.058594 C 466.085938 434.925781 464.3125 426.0625 459.015625 417.476562 C 453.230469 413.019531 447.917969 408.144531 443.066406 402.855469 C 413.285156 388.898438 382.277344 384.910156 350.035156 390.894531 C 347.933594 394.082031 347.933594 397.628906 350.035156 401.527344 C 344.980469 400.738281 340.546875 398.964844 336.746094 396.210938 C 336.746094 395.324219 336.746094 394.4375 336.746094 393.550781 C 338.40625 392.445312 339.289062 390.671875 339.40625 388.234375 C 334.390625 379.144531 333.058594 369.398438 335.417969 358.996094 C 338.253906 357.160156 341.355469 355.828125 344.722656 355.007812 C 375.425781 356.410156 405.546875 361.28125 435.09375 369.628906 C 435.09375 372.285156 435.09375 374.945312 435.09375 377.601562 C 440.28125 376.878906 444.265625 378.648438 447.054688 382.917969 C 448.074219 381.441406 449.402344 380.554688 451.042969 380.261719 Z M 451.042969 380.261719 " fill-opacity="1" fill-rule="evenodd"/><path fill="#faf3b8" d="M 328.773438 393.550781 C 331.71875 393.703125 334.378906 394.589844 336.746094 396.210938 C 340.546875 398.964844 344.980469 400.738281 350.035156 401.527344 C 354.214844 404.683594 358.644531 407.339844 363.328125 409.5 C 358.773438 412.519531 357 416.949219 358.011719 422.792969 C 364.636719 421.8125 366.410156 423.582031 363.328125 428.109375 C 350.152344 424.167969 337.75 418.851562 326.113281 412.160156 C 328.078125 412.507812 329.851562 412.0625 331.429688 410.832031 C 323.363281 407.175781 322.480469 401.414062 328.773438 393.550781 Z M 328.773438 393.550781 " fill-opacity="1" fill-rule="evenodd"/><path fill="#fbfaf5" d="M 509.519531 454.691406 C 505.269531 455.402344 501.726562 454.515625 498.886719 452.03125 C 502.398438 452.484375 505.503906 451.597656 508.191406 449.375 C 511.371094 442.492188 514.027344 435.402344 516.164062 428.109375 C 518.136719 421.796875 516.808594 416.480469 512.175781 412.160156 C 515.515625 411.085938 518.617188 409.3125 521.480469 406.84375 C 533.171875 412.46875 544.25 419.113281 554.703125 426.78125 C 562.5 433.21875 568.699219 440.753906 573.3125 449.375 C 572.5625 455.429688 569.019531 458.53125 562.679688 458.679688 C 544.683594 460.574219 526.964844 459.246094 509.519531 454.691406 Z M 509.519531 454.691406 " fill-opacity="1" fill-rule="evenodd"/><path fill="#edd77c" d="M 363.328125 409.5 C 375.066406 413.414062 386.585938 417.84375 397.882812 422.792969 C 396.453125 427.089844 395.566406 431.523438 395.222656 436.082031 C 391.792969 435.453125 389.132812 436.339844 387.25 438.742188 C 378.78125 435.824219 370.808594 432.28125 363.328125 428.109375 C 366.410156 423.582031 364.636719 421.8125 358.011719 422.792969 C 357 416.949219 358.773438 412.519531 363.328125 409.5 Z M 363.328125 409.5 " fill-opacity="1" fill-rule="evenodd"/><path fill="#0d72bd" d="M 294.21875 412.160156 C 309.027344 416.90625 323.203125 423.109375 336.746094 430.765625 C 330.113281 430.515625 323.027344 431.398438 315.484375 433.425781 C 313.710938 443.5625 311.9375 453.304688 310.167969 462.664062 C 300.609375 447.28125 295.296875 430.449219 294.21875 412.160156 Z M 294.21875 412.160156 " fill-opacity="1" fill-rule="evenodd"/><path fill="#72c8e9" d="M 296.875 398.867188 C 306.292969 404.019531 316.042969 408.453125 326.113281 412.160156 C 337.75 418.851562 350.152344 424.167969 363.328125 428.109375 C 370.808594 432.28125 378.78125 435.824219 387.25 438.742188 C 409.875 447.761719 432.910156 455.734375 456.359375 462.664062 C 448.816406 475.96875 438.183594 486.15625 424.460938 493.234375 C 435.992188 496.175781 447.507812 498.390625 459.015625 499.878906 C 428.882812 517.121094 397.875 519.78125 365.984375 507.855469 C 369.308594 507.648438 371.523438 505.878906 372.628906 502.539062 C 375.042969 488.746094 373.714844 475.453125 368.644531 462.664062 C 360.667969 449.375 350.035156 438.742188 336.746094 430.765625 C 323.203125 423.109375 309.027344 416.90625 294.21875 412.160156 C 293.464844 407.070312 294.347656 402.640625 296.875 398.867188 Z M 296.875 398.867188 " fill-opacity="1" fill-rule="evenodd"/><path fill="#3c2d91" d="M 714.1875 353.679688 C 726.847656 369.257812 737.480469 386.089844 746.082031 404.183594 C 771.851562 450.042969 790.015625 498.773438 800.570312 550.386719 C 813.519531 648.210938 779.410156 723.96875 698.238281 777.664062 C 686.472656 784.386719 674.070312 789.257812 661.027344 792.28125 C 658.929688 791.53125 657.15625 790.199219 655.710938 788.296875 C 659.109375 783.917969 663.539062 780.816406 669 778.992188 C 666.703125 774.480469 663.160156 771.382812 658.367188 769.6875 C 658.695312 764.933594 658.695312 760.058594 658.367188 755.066406 C 655.4375 753.742188 652.777344 752.859375 650.394531 752.410156 C 651.789062 750.570312 653.5625 749.242188 655.710938 748.421875 C 649.484375 742.105469 643.285156 735.90625 637.105469 729.816406 C 670.695312 732.140625 704.363281 733.027344 738.109375 732.472656 C 741.414062 729.40625 744.070312 725.859375 746.082031 721.839844 C 736.671875 715.4375 733.125 707.019531 735.449219 696.585938 C 738.71875 706.652344 740.488281 706.652344 740.765625 696.585938 C 737.441406 686.425781 733.898438 676.234375 730.132812 666.019531 C 732.378906 661.875 730.609375 659.21875 724.820312 658.042969 C 728.363281 651.839844 731.90625 645.636719 735.449219 639.4375 C 729.175781 642.554688 725.632812 640.339844 724.820312 632.789062 C 728.726562 621.578125 731.386719 610.058594 732.792969 598.234375 C 739.386719 570.382812 739.828125 542.027344 734.121094 513.171875 C 720.945312 455.828125 698.351562 402.664062 666.34375 353.679688 C 665.011719 342.996094 669 334.136719 678.304688 327.097656 C 689.289062 337.691406 701.25 346.550781 714.1875 353.679688 Z M 714.1875 353.679688 " fill-opacity="1" fill-rule="evenodd"/><path fill="#c08e26" d="M 397.882812 422.792969 C 419.59375 431.105469 441.746094 438.191406 464.332031 444.058594 C 475.386719 448.398438 486.902344 451.058594 498.886719 452.03125 C 501.726562 454.515625 505.269531 455.402344 509.519531 454.691406 C 505.660156 456.824219 501.230469 458.152344 496.226562 458.679688 C 509.21875 464.492188 522.507812 469.808594 536.097656 474.628906 C 531.753906 475.941406 527.324219 476.382812 522.808594 475.957031 C 511.757812 476.402344 501.125 474.632812 490.914062 470.640625 C 479.289062 468.398438 467.769531 465.742188 456.359375 462.664062 C 432.910156 455.734375 409.875 447.761719 387.25 438.742188 C 389.132812 436.339844 391.792969 435.453125 395.222656 436.082031 C 395.566406 431.523438 396.453125 427.089844 397.882812 422.792969 Z M 397.882812 422.792969 " fill-opacity="1" fill-rule="evenodd"/><path fill="#0d86d5" d="M 631.789062 406.84375 C 631.351562 413.984375 631.796875 421.074219 633.117188 428.109375 C 639.34375 444.574219 644.214844 461.40625 647.734375 478.613281 C 636.179688 489.742188 625.992188 502.148438 617.167969 515.828125 C 605.011719 532.195312 594.824219 531.753906 586.601562 514.5 C 579.378906 514.386719 577.605469 511.726562 581.285156 506.527344 C 578.976562 501.558594 575.875 500.226562 571.980469 502.539062 C 570.34375 500.015625 570.785156 497.800781 573.3125 495.894531 C 571.730469 494.660156 569.960938 494.214844 567.996094 494.5625 C 572.425781 489.246094 576.855469 483.929688 581.285156 478.613281 C 588.824219 470.605469 595.023438 461.746094 599.890625 452.03125 C 612.484375 438.371094 623.117188 423.304688 631.789062 406.84375 Z M 631.789062 406.84375 " fill-opacity="1" fill-rule="evenodd"/><path fill="#d6a93b" d="M 520.152344 390.894531 C 538.433594 397.382812 555.269531 406.6875 570.652344 418.804688 C 582.554688 428.003906 592.300781 439.078125 599.890625 452.03125 C 595.023438 461.746094 588.824219 470.605469 581.285156 478.613281 C 561.300781 479.476562 541.808594 478.59375 522.808594 475.957031 C 527.324219 476.382812 531.753906 475.941406 536.097656 474.628906 C 522.507812 469.808594 509.21875 464.492188 496.226562 458.679688 C 501.230469 458.152344 505.660156 456.824219 509.519531 454.691406 C 526.964844 459.246094 544.683594 460.574219 562.679688 458.679688 C 569.019531 458.53125 572.5625 455.429688 573.3125 449.375 C 568.699219 440.753906 562.5 433.21875 554.703125 426.78125 C 544.25 419.113281 533.171875 412.46875 521.480469 406.84375 C 518.617188 409.3125 515.515625 411.085938 512.175781 412.160156 C 492.960938 406.097656 475.242188 397.234375 459.015625 385.578125 C 460.128906 383.660156 461.898438 382.328125 464.332031 381.589844 C 460.433594 378.671875 458.214844 374.683594 457.6875 369.628906 C 453.394531 367.273438 449.40625 364.613281 445.726562 361.652344 C 469.484375 360.457031 478.785156 348.050781 473.636719 324.4375 C 467.292969 321.082031 462.421875 316.207031 459.015625 309.820312 C 442.152344 303.871094 426.203125 305.203125 411.171875 313.804688 C 411.171875 312.921875 411.171875 312.03125 411.171875 311.148438 C 411.171875 309.375 411.171875 307.605469 411.171875 305.832031 C 414.707031 302.289062 419.136719 300.078125 424.460938 299.1875 C 435.09375 297.414062 445.726562 297.414062 456.359375 299.1875 C 464.484375 306.425781 473.34375 312.625 482.9375 317.792969 C 486.9375 321.757812 489.148438 326.628906 489.582031 332.414062 C 494.144531 352.984375 486.613281 366.71875 466.988281 373.617188 C 483.558594 385.203125 501.28125 390.960938 520.152344 390.894531 Z M 520.152344 390.894531 " fill-opacity="1" fill-rule="evenodd"/><path fill="#1695da" d="M 336.746094 430.765625 C 350.035156 438.742188 360.667969 449.375 368.644531 462.664062 C 367.566406 489.351562 355.160156 495.996094 331.429688 482.601562 C 324.992188 478.425781 321.449219 472.667969 320.800781 465.324219 C 317.253906 465.324219 315.484375 467.097656 315.484375 470.640625 C 313.089844 468.539062 311.316406 465.882812 310.167969 462.664062 C 311.9375 453.304688 313.710938 443.5625 315.484375 433.425781 C 323.027344 431.398438 330.113281 430.515625 336.746094 430.765625 Z M 336.746094 430.765625 " fill-opacity="1" fill-rule="evenodd"/><path fill="#2ebef3" d="M 320.800781 465.324219 C 318.09375 447.429688 325.179688 442.113281 342.0625 449.375 C 345.691406 453.203125 349.679688 456.75 354.023438 460.007812 C 355.34375 466.148438 355.785156 472.347656 355.351562 478.613281 C 341.144531 480.800781 329.625 476.367188 320.800781 465.324219 Z M 320.800781 465.324219 " fill-opacity="1" fill-rule="evenodd"/><path fill="#0d6bb0" d="M 631.789062 401.527344 C 652.191406 435.25 666.367188 471.582031 674.316406 510.511719 C 668.039062 515.015625 662.722656 520.332031 658.367188 526.460938 C 655.421875 510.636719 651.875 494.6875 647.734375 478.613281 C 644.214844 461.40625 639.34375 444.574219 633.117188 428.109375 C 631.796875 421.074219 631.351562 413.984375 631.789062 406.84375 C 631.789062 405.070312 631.789062 403.300781 631.789062 401.527344 Z M 631.789062 401.527344 " fill-opacity="1" fill-rule="evenodd"/><path fill="#a0def1" d="M 456.359375 462.664062 C 467.769531 465.742188 479.289062 468.398438 490.914062 470.640625 C 483.730469 484.019531 473.097656 493.765625 459.015625 499.878906 C 447.507812 498.390625 435.992188 496.175781 424.460938 493.234375 C 438.183594 486.15625 448.816406 475.96875 456.359375 462.664062 Z M 456.359375 462.664062 " fill-opacity="1" fill-rule="evenodd"/><path fill="#1eb5f4" d="M 65.628906 401.527344 C 74.714844 417.042969 84.457031 432.105469 94.867188 446.714844 C 94.867188 447.601562 94.867188 448.488281 94.867188 449.375 C 77.253906 501.152344 72.382812 554.316406 80.246094 608.867188 C 85.027344 626.402344 92.558594 642.351562 102.839844 656.714844 C 103.726562 660.257812 104.613281 663.804688 105.5 667.347656 C 107.09375 674.785156 109.75 681.875 113.472656 688.613281 C 112.929688 704.304688 112.929688 720.253906 113.472656 736.460938 C 99.296875 737.609375 85.121094 738.941406 70.945312 740.449219 C 78.390625 743.652344 81.046875 748.527344 78.917969 755.066406 C 22.082031 701.984375 -1.394531 636.417969 8.480469 558.359375 C 11.65625 539.457031 16.085938 520.847656 21.769531 502.539062 C 34.289062 467.773438 48.910156 434.101562 65.628906 401.527344 Z M 65.628906 401.527344 " fill-opacity="1" fill-rule="evenodd"/><path fill="#1075c3" d="M 368.644531 462.664062 C 373.714844 475.453125 375.042969 488.746094 372.628906 502.539062 C 371.523438 505.878906 369.308594 507.648438 365.984375 507.855469 C 344.871094 501.285156 328.039062 488.878906 315.484375 470.640625 C 315.484375 467.097656 317.253906 465.324219 320.800781 465.324219 C 321.449219 472.667969 324.992188 478.425781 331.429688 482.601562 C 355.160156 495.996094 367.566406 489.351562 368.644531 462.664062 Z M 368.644531 462.664062 " fill-opacity="1" fill-rule="evenodd"/><path fill="#1294db" d="M 94.867188 449.375 C 107.929688 469.550781 122.105469 489.042969 137.394531 507.855469 C 134.363281 515.476562 131.707031 523.453125 129.421875 531.777344 C 110.742188 571.070312 101.882812 612.71875 102.839844 656.714844 C 92.558594 642.351562 85.027344 626.402344 80.246094 608.867188 C 72.382812 554.316406 77.253906 501.152344 94.867188 449.375 Z M 94.867188 449.375 " fill-opacity="1" fill-rule="evenodd"/><path fill="#f9fafc" d="M 137.394531 507.855469 C 164.449219 543.269531 194.570312 576.054688 227.769531 606.207031 C 248.273438 627.605469 270.425781 647.097656 294.21875 664.6875 C 297.761719 668.230469 301.308594 671.777344 304.851562 675.320312 C 298.648438 677.09375 292.445312 678.863281 286.246094 680.636719 C 217.394531 691.628906 168.222656 665.933594 138.722656 603.550781 C 131.109375 580.289062 128.007812 556.363281 129.421875 531.777344 C 131.707031 523.453125 134.363281 515.476562 137.394531 507.855469 Z M 137.394531 507.855469 " fill-opacity="1" fill-rule="evenodd"/><path fill="#fafbfc" d="M 674.316406 510.511719 C 678.046875 519.574219 679.816406 529.320312 679.632812 539.753906 C 682.0625 618.738281 644.851562 666.144531 567.996094 681.96875 C 547.089844 683.851562 526.710938 681.636719 506.859375 675.320312 C 540.351562 648.039062 572.246094 618.800781 602.550781 587.601562 C 622.0625 568.085938 640.667969 547.707031 658.367188 526.460938 C 662.722656 520.332031 668.039062 515.015625 674.316406 510.511719 Z M 674.316406 510.511719 " fill-opacity="1" fill-rule="evenodd"/><path fill="#0673c9" d="M 647.734375 478.613281 C 651.875 494.6875 655.421875 510.636719 658.367188 526.460938 C 640.667969 547.707031 622.0625 568.085938 602.550781 587.601562 C 600.671875 581.539062 598.011719 575.777344 594.574219 570.324219 C 597.121094 567.273438 596.238281 564.617188 591.917969 562.347656 C 593.15625 558.894531 593.15625 554.90625 591.917969 550.386719 C 589.121094 549.988281 586.464844 550.429688 583.941406 551.714844 C 572.703125 563.40625 561.183594 574.480469 549.390625 584.941406 C 542.613281 573.234375 535.082031 561.710938 526.796875 550.386719 C 526.628906 546.09375 526.1875 542.550781 525.464844 539.753906 C 539.640625 524.6875 553.820312 509.628906 567.996094 494.5625 C 569.960938 494.214844 571.730469 494.660156 573.3125 495.894531 C 570.785156 497.800781 570.34375 500.015625 571.980469 502.539062 C 575.875 500.226562 578.976562 501.558594 581.285156 506.527344 C 577.605469 511.726562 579.378906 514.386719 586.601562 514.5 C 594.824219 531.753906 605.011719 532.195312 617.167969 515.828125 C 625.992188 502.148438 636.179688 489.742188 647.734375 478.613281 Z M 647.734375 478.613281 " fill-opacity="1" fill-rule="evenodd"/><path fill="#231a66" d="M 387.25 619.5 C 392.519531 622.082031 397.835938 624.738281 403.199219 627.472656 C 401.054688 630.738281 398.398438 633.394531 395.222656 635.449219 C 381.117188 642.5 366.941406 649.589844 352.695312 656.714844 C 346.039062 650.089844 338.066406 645.660156 328.773438 643.421875 C 315.449219 646.101562 303.046875 650.976562 291.5625 658.042969 C 293.558594 659.828125 294.445312 662.042969 294.21875 664.6875 C 270.425781 647.097656 248.273438 627.605469 227.769531 606.207031 C 231.054688 597.144531 228.394531 589.617188 219.792969 583.613281 C 220.679688 582.726562 221.566406 581.839844 222.453125 580.957031 C 210.933594 559.980469 200.742188 537.386719 191.882812 513.171875 C 233.28125 559.003906 278.023438 601.09375 326.113281 639.4375 C 329.65625 641.207031 333.203125 641.207031 336.746094 639.4375 C 353.84375 632.628906 370.675781 625.984375 387.25 619.5 Z M 387.25 619.5 " fill-opacity="1" fill-rule="evenodd"/><path fill="#045ebc" d="M 602.550781 587.601562 C 572.246094 618.800781 540.351562 648.039062 506.859375 675.320312 C 502.429688 677.980469 498.886719 681.523438 496.226562 685.953125 C 488.320312 689.023438 481.230469 693.457031 474.964844 699.246094 C 464.011719 689.984375 455.152344 678.910156 448.382812 666.019531 C 484.023438 641.453125 517.691406 614.425781 549.390625 584.941406 C 561.183594 574.480469 572.703125 563.40625 583.941406 551.714844 C 586.464844 550.429688 589.121094 549.988281 591.917969 550.386719 C 593.15625 554.90625 593.15625 558.894531 591.917969 562.347656 C 596.238281 564.617188 597.121094 567.273438 594.574219 570.324219 C 598.011719 575.777344 600.671875 581.539062 602.550781 587.601562 Z M 602.550781 587.601562 " fill-opacity="1" fill-rule="evenodd"/><path fill="#056cc5" d="M 525.464844 539.753906 C 526.1875 542.550781 526.628906 546.09375 526.796875 550.386719 C 535.082031 561.710938 542.613281 573.234375 549.390625 584.941406 C 517.691406 614.425781 484.023438 641.453125 448.382812 666.019531 C 455.152344 678.910156 464.011719 689.984375 474.964844 699.246094 C 453.175781 715 431.023438 730.066406 408.511719 744.433594 C 397.394531 750.433594 385.878906 755.75 373.960938 760.382812 C 374.875 757.238281 373.101562 755.023438 368.644531 753.738281 C 371.675781 751.769531 371.675781 749.550781 368.644531 747.09375 C 375.265625 744.324219 375.265625 742.113281 368.644531 740.449219 C 370.230469 737.625 371.113281 734.523438 371.300781 731.144531 C 367.519531 723.765625 365.75 715.792969 365.984375 707.21875 C 374.386719 703.464844 382.363281 699.03125 389.90625 693.929688 C 408.5625 685.261719 426.722656 675.515625 444.398438 664.6875 C 445.242188 660.539062 447.457031 657.4375 451.042969 655.386719 C 449.269531 654.5 447.5 653.613281 445.726562 652.726562 C 451.492188 649.195312 452.375 644.769531 448.382812 639.4375 C 451.59375 635.980469 453.363281 631.992188 453.699219 627.472656 C 450.902344 627.871094 448.246094 627.429688 445.726562 626.144531 C 446.609375 625.257812 447.5 624.371094 448.382812 623.488281 C 445.53125 621.523438 443.757812 618.863281 443.066406 615.511719 C 445.246094 610.726562 447.019531 605.851562 448.382812 600.890625 C 474.84375 581.523438 500.535156 561.144531 525.464844 539.753906 Z M 525.464844 539.753906 " fill-opacity="1" fill-rule="evenodd"/><path fill="#0a78cd" d="M 448.382812 600.890625 C 447.019531 605.851562 445.246094 610.726562 443.066406 615.511719 C 443.757812 618.863281 445.53125 621.523438 448.382812 623.488281 C 447.5 624.371094 446.609375 625.257812 445.726562 626.144531 C 448.246094 627.429688 450.902344 627.871094 453.699219 627.472656 C 453.363281 631.992188 451.59375 635.980469 448.382812 639.4375 C 452.375 644.769531 451.492188 649.195312 445.726562 652.726562 C 447.5 653.613281 449.269531 654.5 451.042969 655.386719 C 447.457031 657.4375 445.242188 660.539062 444.398438 664.6875 C 426.722656 675.515625 408.5625 685.261719 389.90625 693.929688 C 388.796875 692.011719 387.027344 690.679688 384.589844 689.941406 C 391.679688 688.167969 391.679688 686.398438 384.589844 684.625 C 388.933594 677.203125 387.160156 671.003906 379.273438 666.019531 C 385.921875 662.25 385.039062 659.589844 376.617188 658.042969 C 378.816406 655.609375 381.476562 653.839844 384.589844 652.726562 C 379.804688 651.882812 378.917969 650.109375 381.933594 647.410156 C 388.566406 644.539062 394.773438 640.992188 400.539062 636.777344 C 398.960938 635.542969 397.1875 635.101562 395.222656 635.449219 C 398.398438 633.394531 401.054688 630.738281 403.199219 627.472656 C 419.5 620.65625 434.558594 611.792969 448.382812 600.890625 Z M 448.382812 600.890625 " fill-opacity="1" fill-rule="evenodd"/><path fill="#211763" d="M 679.632812 539.753906 C 684.796875 559.796875 693.214844 584.609375 704.882812 614.183594 C 705.769531 608.867188 706.65625 603.550781 707.542969 598.234375 C 710.492188 603.277344 710.933594 608.148438 708.871094 612.855469 C 712.175781 614.066406 714.390625 612.738281 715.515625 608.867188 C 718.6875 612.796875 720.015625 616.339844 719.503906 619.5 C 721.566406 613.4375 724.226562 607.675781 727.476562 602.222656 C 726.589844 601.335938 725.703125 600.449219 724.820312 599.5625 C 727.140625 584.890625 729.796875 584.445312 732.792969 598.234375 C 731.386719 610.058594 728.726562 621.578125 724.820312 632.789062 C 705.433594 678.75 671.765625 708.878906 623.8125 723.167969 C 583.484375 712.824219 544.058594 699.535156 505.53125 683.296875 C 502.507812 684.597656 499.40625 685.480469 496.226562 685.953125 C 498.886719 681.523438 502.429688 677.980469 506.859375 675.320312 C 526.710938 681.636719 547.089844 683.851562 567.996094 681.96875 C 644.851562 666.144531 682.0625 618.738281 679.632812 539.753906 Z M 679.632812 539.753906 " fill-opacity="1" fill-rule="evenodd"/><path fill="#1a1350" d="M 352.695312 656.714844 C 337.320312 664.402344 321.371094 670.601562 304.851562 675.320312 C 301.308594 671.777344 297.761719 668.230469 294.21875 664.6875 C 294.445312 662.042969 293.558594 659.828125 291.5625 658.042969 C 303.046875 650.976562 315.449219 646.101562 328.773438 643.421875 C 338.066406 645.660156 346.039062 650.089844 352.695312 656.714844 Z M 352.695312 656.714844 " fill-opacity="1" fill-rule="evenodd"/><path fill="#0870c1" d="M 129.421875 531.777344 C 128.007812 556.363281 131.109375 580.289062 138.722656 603.550781 C 168.222656 665.933594 217.394531 691.628906 286.246094 680.636719 C 289.039062 680.242188 291.699219 680.683594 294.21875 681.96875 C 259.554688 700.167969 223.226562 713.898438 185.238281 723.167969 C 181.695312 722.285156 178.152344 721.394531 174.609375 720.511719 C 146.570312 709.164062 123.535156 691.445312 105.5 667.347656 C 104.613281 663.804688 103.726562 660.257812 102.839844 656.714844 C 101.882812 612.71875 110.742188 571.070312 129.421875 531.777344 Z M 129.421875 531.777344 " fill-opacity="1" fill-rule="evenodd"/><path fill="#0e83d3" d="M 395.222656 635.449219 C 397.1875 635.101562 398.960938 635.542969 400.539062 636.777344 C 394.773438 640.992188 388.566406 644.539062 381.933594 647.410156 C 378.917969 650.109375 379.804688 651.882812 384.589844 652.726562 C 381.476562 653.839844 378.816406 655.609375 376.617188 658.042969 C 385.039062 659.589844 385.921875 662.25 379.273438 666.019531 C 387.160156 671.003906 388.933594 677.203125 384.589844 684.625 C 391.679688 686.398438 391.679688 688.167969 384.589844 689.941406 C 387.027344 690.679688 388.796875 692.011719 389.90625 693.929688 C 382.363281 699.03125 374.386719 703.464844 365.984375 707.21875 C 347.222656 713.621094 328.617188 720.265625 310.167969 727.15625 C 303.804688 734.179688 298.488281 741.710938 294.21875 749.75 C 296.28125 756.882812 297.167969 763.527344 296.875 769.6875 C 295.105469 770.574219 293.332031 771.460938 291.5625 772.347656 C 295.105469 773.230469 298.648438 774.117188 302.191406 775.003906 C 299.671875 776.289062 297.015625 776.730469 294.21875 776.332031 C 294.21875 778.992188 294.21875 781.648438 294.21875 784.308594 C 300.84375 783.328125 302.617188 785.097656 299.535156 789.625 C 281.132812 797.320312 261.640625 801.75 241.058594 802.914062 C 223.316406 803.355469 205.59375 802.914062 187.898438 801.585938 C 193.214844 800.699219 198.53125 799.8125 203.847656 798.929688 C 196.933594 796.480469 189.84375 794.710938 182.582031 793.613281 C 187.011719 792.726562 191.441406 791.839844 195.871094 790.953125 C 194.921875 777.753906 194.035156 764.460938 193.214844 751.082031 C 194.988281 747.535156 196.757812 743.992188 198.53125 740.449219 C 195.164062 739.625 192.0625 738.296875 189.226562 736.460938 C 185.996094 743.003906 184.222656 750.09375 183.910156 757.726562 C 181.472656 747.621094 181.03125 737.875 182.582031 728.484375 C 191.683594 728.839844 192.570312 727.070312 185.238281 723.167969 C 223.226562 713.898438 259.554688 700.167969 294.21875 681.96875 C 291.699219 680.683594 289.039062 680.242188 286.246094 680.636719 C 292.445312 678.863281 298.648438 677.09375 304.851562 675.320312 C 321.371094 670.601562 337.320312 664.402344 352.695312 656.714844 C 366.941406 649.589844 381.117188 642.5 395.222656 635.449219 Z M 395.222656 635.449219 " fill-opacity="1" fill-rule="evenodd"/><path fill="#352988" d="M 724.820312 632.789062 C 725.632812 640.339844 729.175781 642.554688 735.449219 639.4375 C 731.90625 645.636719 728.363281 651.839844 724.820312 658.042969 C 730.609375 659.21875 732.378906 661.875 730.132812 666.019531 C 733.898438 676.234375 737.441406 686.425781 740.765625 696.585938 C 740.488281 706.652344 738.71875 706.652344 735.449219 696.585938 C 733.125 707.019531 736.671875 715.4375 746.082031 721.839844 C 744.070312 725.859375 741.414062 729.40625 738.109375 732.472656 C 704.363281 733.027344 670.695312 732.140625 637.105469 729.816406 C 643.285156 735.90625 649.484375 742.105469 655.710938 748.421875 C 653.5625 749.242188 651.789062 750.570312 650.394531 752.410156 C 652.777344 752.859375 655.4375 753.742188 658.367188 755.066406 C 658.695312 760.058594 658.695312 764.933594 658.367188 769.6875 C 663.160156 771.382812 666.703125 774.480469 669 778.992188 C 663.539062 780.816406 659.109375 783.917969 655.710938 788.296875 C 657.15625 790.199219 658.929688 791.53125 661.027344 792.28125 C 629.542969 805.101562 596.761719 808.644531 562.679688 802.914062 C 560.652344 800.875 557.992188 799.542969 554.703125 798.929688 C 561.792969 797.15625 561.792969 795.382812 554.703125 793.613281 C 557.363281 792.726562 560.019531 791.839844 562.679688 790.953125 C 556.632812 789.703125 551.320312 787.046875 546.730469 782.980469 C 548.503906 782.09375 550.273438 781.207031 552.046875 780.320312 C 550.273438 769.6875 548.503906 759.054688 546.730469 748.421875 C 548.566406 740.792969 545.023438 736.363281 536.097656 735.132812 C 555.589844 734.246094 575.082031 733.359375 594.574219 732.472656 C 604.867188 730.070312 614.613281 726.96875 623.8125 723.167969 C 671.765625 708.878906 705.433594 678.75 724.820312 632.789062 Z M 724.820312 632.789062 " fill-opacity="1" fill-rule="evenodd"/><path fill="#2a2073" d="M 623.8125 723.167969 C 614.613281 726.96875 604.867188 730.070312 594.574219 732.472656 C 575.082031 733.359375 555.589844 734.246094 536.097656 735.132812 C 545.023438 736.363281 548.566406 740.792969 546.730469 748.421875 C 548.503906 759.054688 550.273438 769.6875 552.046875 780.320312 C 550.273438 781.207031 548.503906 782.09375 546.730469 782.980469 C 551.320312 787.046875 556.632812 789.703125 562.679688 790.953125 C 560.019531 791.839844 557.363281 792.726562 554.703125 793.613281 C 561.792969 795.382812 561.792969 797.15625 554.703125 798.929688 C 557.992188 799.542969 560.652344 800.875 562.679688 802.914062 C 506.949219 794.386719 455.5625 774.894531 408.511719 744.433594 C 431.023438 730.066406 453.175781 715 474.964844 699.246094 C 481.230469 693.457031 488.320312 689.023438 496.226562 685.953125 C 499.40625 685.480469 502.507812 684.597656 505.53125 683.296875 C 544.058594 699.535156 583.484375 712.824219 623.8125 723.167969 Z M 623.8125 723.167969 " fill-opacity="1" fill-rule="evenodd"/><path fill="#1d98e2" d="M 174.609375 720.511719 C 178.152344 721.394531 181.695312 722.285156 185.238281 723.167969 C 192.570312 727.070312 191.683594 728.839844 182.582031 728.484375 C 181.03125 737.875 181.472656 747.621094 183.910156 757.726562 C 184.222656 750.09375 185.996094 743.003906 189.226562 736.460938 C 192.0625 738.296875 195.164062 739.625 198.53125 740.449219 C 196.757812 743.992188 194.988281 747.535156 193.214844 751.082031 C 194.035156 764.460938 194.921875 777.753906 195.871094 790.953125 C 191.441406 791.839844 187.011719 792.726562 182.582031 793.613281 C 189.84375 794.710938 196.933594 796.480469 203.847656 798.929688 C 198.53125 799.8125 193.214844 800.699219 187.898438 801.585938 C 205.59375 802.914062 223.316406 803.355469 241.058594 802.914062 C 202.140625 810.082031 164.925781 804.765625 129.421875 786.964844 C 130.53125 785.046875 132.300781 783.71875 134.738281 782.980469 C 134.414062 770.707031 132.644531 757.414062 129.421875 743.105469 C 140.503906 737.144531 151.582031 731.386719 162.644531 725.828125 C 167.351562 727.890625 172.222656 727.449219 177.265625 724.5 C 175.789062 723.480469 174.902344 722.152344 174.609375 720.511719 Z M 174.609375 720.511719 " fill-opacity="1" fill-rule="evenodd"/><path fill="#19a1e7" d="M 105.5 667.347656 C 123.535156 691.445312 146.570312 709.164062 174.609375 720.511719 C 174.902344 722.152344 175.789062 723.480469 177.265625 724.5 C 172.222656 727.449219 167.351562 727.890625 162.644531 725.828125 C 151.582031 731.386719 140.503906 737.144531 129.421875 743.105469 C 132.644531 757.414062 134.414062 770.707031 134.738281 782.980469 C 132.300781 783.71875 130.53125 785.046875 129.421875 786.964844 C 111.214844 778.503906 94.378906 767.871094 78.917969 755.066406 C 81.046875 748.527344 78.390625 743.652344 70.945312 740.449219 C 85.121094 738.941406 99.296875 737.609375 113.472656 736.460938 C 112.929688 720.253906 112.929688 704.304688 113.472656 688.613281 C 109.75 681.875 107.09375 674.785156 105.5 667.347656 Z M 105.5 667.347656 " fill-opacity="1" fill-rule="evenodd"/><path fill="#0c79cd" d="M 365.984375 707.21875 C 365.75 715.792969 367.519531 723.765625 371.300781 731.144531 C 371.113281 734.523438 370.230469 737.625 368.644531 740.449219 C 375.265625 742.113281 375.265625 744.324219 368.644531 747.09375 C 371.675781 749.550781 371.675781 751.769531 368.644531 753.738281 C 373.101562 755.023438 374.875 757.238281 373.960938 760.382812 C 350.972656 774.261719 326.164062 784.003906 299.535156 789.625 C 302.617188 785.097656 300.84375 783.328125 294.21875 784.308594 C 294.21875 781.648438 294.21875 778.992188 294.21875 776.332031 C 297.015625 776.730469 299.671875 776.289062 302.191406 775.003906 C 298.648438 774.117188 295.105469 773.230469 291.5625 772.347656 C 293.332031 771.460938 295.105469 770.574219 296.875 769.6875 C 297.167969 763.527344 296.28125 756.882812 294.21875 749.75 C 298.488281 741.710938 303.804688 734.179688 310.167969 727.15625 C 328.617188 720.265625 347.222656 713.621094 365.984375 707.21875 Z M 365.984375 707.21875 " fill-opacity="1" fill-rule="evenodd"/></svg>